<svg xmlns="http://www.w3.org/2000/svg" width="26.258" height="26.259" viewBox="0 0 26.258 26.259">
  <path id="instagram_1_" data-name="instagram(1)" d="M13.388,26.261h-.261c-2.058.005-3.96-.047-5.81-.16a7.766,7.766,0,0,1-4.476-1.695,7.186,7.186,0,0,1-2.415-3.9,17.273,17.273,0,0,1-.4-4.125C.017,15.424,0,14.289,0,13.133s.016-2.3.03-3.255a17.275,17.275,0,0,1,.4-4.125,7.186,7.186,0,0,1,2.415-3.9A7.766,7.766,0,0,1,7.317.162C9.167.049,11.069,0,13.132,0s3.96.047,5.81.16a7.766,7.766,0,0,1,4.476,1.695,7.184,7.184,0,0,1,2.415,3.9,17.274,17.274,0,0,1,.4,4.125c.013.959.027,2.095.03,3.25v0c0,1.155-.016,2.291-.03,3.25a17.265,17.265,0,0,1-.4,4.125,7.184,7.184,0,0,1-2.415,3.9A7.766,7.766,0,0,1,18.942,26.1c-1.771.108-3.591.16-5.553.16Zm-.261-2.052c2.025,0,3.884-.046,5.69-.156a5.651,5.651,0,0,0,3.3-1.237A5.179,5.179,0,0,0,23.845,20a15.715,15.715,0,0,0,.333-3.645c.013-.952.027-2.08.029-3.224s-.016-2.272-.029-3.224a15.718,15.718,0,0,0-.333-3.646,5.179,5.179,0,0,0-1.723-2.815,5.652,5.652,0,0,0-3.3-1.237c-1.806-.11-3.665-.161-5.685-.156s-3.884.046-5.69.156a5.652,5.652,0,0,0-3.3,1.237A5.179,5.179,0,0,0,2.414,6.261a15.717,15.717,0,0,0-.333,3.646c-.013.953-.027,2.082-.029,3.227s.016,2.269.029,3.222A15.715,15.715,0,0,0,2.414,20a5.179,5.179,0,0,0,1.723,2.815,5.652,5.652,0,0,0,3.3,1.237C9.248,24.162,11.108,24.214,13.127,24.209Zm-.049-4.667a6.411,6.411,0,1,1,6.411-6.411A6.418,6.418,0,0,1,13.078,19.542Zm0-10.77a4.359,4.359,0,1,0,4.359,4.359A4.365,4.365,0,0,0,13.078,8.771Zm7.129-4.1a1.539,1.539,0,1,0,1.539,1.539A1.539,1.539,0,0,0,20.207,4.668Zm0,0" transform="translate(0 -0.001)" fill="#fff"/>
</svg>
