<svg xmlns="http://www.w3.org/2000/svg" width="26.258" height="25.099" viewBox="0 0 26.258 25.099">
  <g id="linkedin" transform="translate(0 0.668)">
    <path id="Path_1" data-name="Path 1" d="M3.184-.668A2.934,2.934,0,1,0,3.11,5.184h.037A2.935,2.935,0,1,0,3.184-.668Zm0,0" fill="#fff"/>
    <path id="Path_2" data-name="Path 2" d="M8.109,198.313h5.629v16.935H8.109Zm0,0" transform="translate(-7.777 -190.817)" fill="#fff"/>
    <path id="Path_3" data-name="Path 3" d="M231.917,188.625c-3.037,0-5.073,2.853-5.073,2.853v-2.456h-5.629v16.935h5.629V196.5a3.858,3.858,0,0,1,.185-1.374,3.081,3.081,0,0,1,2.888-2.058c2.037,0,2.851,1.553,2.851,3.83v9.06H238.4v-9.71c0-5.2-2.777-7.622-6.48-7.622Zm0,0" transform="translate(-212.139 -181.527)" fill="#fff"/>
  </g>
</svg>
