<svg xmlns="http://www.w3.org/2000/svg" width="21.251" height="26.156" viewBox="0 0 21.251 26.156">
  <path id="pinterest" d="M13.231,0C6.061,0,2.25,4.595,2.25,9.6c0,2.322,1.3,5.22,3.376,6.139.593.267.514-.059,1.024-2.01a.463.463,0,0,0-.111-.454c-2.971-3.436-.58-10.5,6.268-10.5,9.91,0,8.058,13.712,1.724,13.712a2.339,2.339,0,0,1-2.464-2.867c.466-1.889,1.38-3.919,1.38-5.28,0-3.431-5.111-2.922-5.111,1.624a5.5,5.5,0,0,0,.5,2.353S7.188,18.963,6.883,20.2A17.631,17.631,0,0,0,7,26a.172.172,0,0,0,.314.08,20.552,20.552,0,0,0,2.707-5.1c.2-.747,1.034-3.776,1.034-3.776a4.518,4.518,0,0,0,3.812,1.818c5.009,0,8.629-4.4,8.629-9.866C23.483,3.919,19,0,13.231,0Z" transform="translate(-2.25)" fill="#fff"/>
</svg>
